STARTFONT 2.1
FONT WH:/gn/phr/ast-xfonts/runlen.ast
SIZE 2 75 75
FONTBOUNDINGBOX 96 3 0 0
STARTPROPERTIES 3
FONT_DESCENT 0
FONT_ASCENT 3
COPYRIGHT "Public domain font.  Share and enjoy."
ENDPROPERTIES
CHARS 83
STARTCHAR C000
ENCODING 0
SWIDTH 9000 0
DWIDTH 18 0
BBX 18 3 0 0
BITMAP
00
00
00
ENDCHAR
STARTCHAR C002
ENCODING 2
SWIDTH 9000 0
DWIDTH 18 0
BBX 18 3 0 0
BITMAP
e0
e0
e0
ENDCHAR
STARTCHAR C004
ENCODING 4
SWIDTH 9000 0
DWIDTH 18 0
BBX 18 3 0 0
BITMAP
e0
e0
e0
ENDCHAR
STARTCHAR C006
ENCODING 6
SWIDTH 9000 0
DWIDTH 18 0
BBX 18 3 0 0
BITMAP
fc
fc
fc
ENDCHAR
STARTCHAR C010
ENCODING 8
SWIDTH 9000 0
DWIDTH 18 0
BBX 18 3 0 0
BITMAP
e0
e0
e0
ENDCHAR
STARTCHAR C012
ENCODING 10
SWIDTH 9000 0
DWIDTH 18 0
BBX 18 3 0 0
BITMAP
e380
e380
e380
ENDCHAR
STARTCHAR C014
ENCODING 12
SWIDTH 9000 0
DWIDTH 18 0
BBX 18 3 0 0
BITMAP
fc
fc
fc
ENDCHAR
STARTCHAR C016
ENCODING 14
SWIDTH 9000 0
DWIDTH 18 0
BBX 18 3 0 0
BITMAP
ff80
ff80
ff80
ENDCHAR
STARTCHAR C020
ENCODING 16
SWIDTH 9000 0
DWIDTH 18 0
BBX 18 3 0 0
BITMAP
e0
e0
e0
ENDCHAR
STARTCHAR C022
ENCODING 18
SWIDTH 9000 0
DWIDTH 18 0
BBX 18 3 0 0
BITMAP
e070
e070
e070
ENDCHAR
STARTCHAR C024
ENCODING 20
SWIDTH 9000 0
DWIDTH 18 0
BBX 18 3 0 0
BITMAP
e380
e380
e380
ENDCHAR
STARTCHAR C026
ENCODING 22
SWIDTH 9000 0
DWIDTH 18 0
BBX 18 3 0 0
BITMAP
e3f0
e3f0
e3f0
ENDCHAR
STARTCHAR C030
ENCODING 24
SWIDTH 9000 0
DWIDTH 18 0
BBX 18 3 0 0
BITMAP
fc
fc
fc
ENDCHAR
STARTCHAR C032
ENCODING 26
SWIDTH 9000 0
DWIDTH 18 0
BBX 18 3 0 0
BITMAP
fc70
fc70
fc70
ENDCHAR
STARTCHAR C034
ENCODING 28
SWIDTH 9000 0
DWIDTH 18 0
BBX 18 3 0 0
BITMAP
ff80
ff80
ff80
ENDCHAR
STARTCHAR C036
ENCODING 30
SWIDTH 9000 0
DWIDTH 18 0
BBX 18 3 0 0
BITMAP
fff0
fff0
fff0
ENDCHAR
STARTCHAR C040
ENCODING 32
SWIDTH 9000 0
DWIDTH 18 0
BBX 18 3 0 0
BITMAP
e0
e0
e0
ENDCHAR
STARTCHAR "
ENCODING 34
SWIDTH 9000 0
DWIDTH 18 0
BBX 18 3 0 0
BITMAP
e00e
e00e
e00e
ENDCHAR
STARTCHAR $
ENCODING 36
SWIDTH 9000 0
DWIDTH 18 0
BBX 18 3 0 0
BITMAP
e070
e070
e070
ENDCHAR
STARTCHAR &
ENCODING 38
SWIDTH 9000 0
DWIDTH 18 0
BBX 18 3 0 0
BITMAP
e07e
e07e
e07e
ENDCHAR
STARTCHAR (
ENCODING 40
SWIDTH 9000 0
DWIDTH 18 0
BBX 18 3 0 0
BITMAP
e380
e380
e380
ENDCHAR
STARTCHAR *
ENCODING 42
SWIDTH 9000 0
DWIDTH 18 0
BBX 18 3 0 0
BITMAP
e38e
e38e
e38e
ENDCHAR
STARTCHAR ,
ENCODING 44
SWIDTH 9000 0
DWIDTH 18 0
BBX 18 3 0 0
BITMAP
e3f0
e3f0
e3f0
ENDCHAR
STARTCHAR .
ENCODING 46
SWIDTH 9000 0
DWIDTH 18 0
BBX 18 3 0 0
BITMAP
e3fe
e3fe
e3fe
ENDCHAR
STARTCHAR 0
ENCODING 48
SWIDTH 9000 0
DWIDTH 18 0
BBX 18 3 0 0
BITMAP
fc
fc
fc
ENDCHAR
STARTCHAR 2
ENCODING 50
SWIDTH 9000 0
DWIDTH 18 0
BBX 18 3 0 0
BITMAP
fc0e
fc0e
fc0e
ENDCHAR
STARTCHAR 4
ENCODING 52
SWIDTH 9000 0
DWIDTH 18 0
BBX 18 3 0 0
BITMAP
fc70
fc70
fc70
ENDCHAR
STARTCHAR 6
ENCODING 54
SWIDTH 9000 0
DWIDTH 18 0
BBX 18 3 0 0
BITMAP
fc7e
fc7e
fc7e
ENDCHAR
STARTCHAR 8
ENCODING 56
SWIDTH 9000 0
DWIDTH 18 0
BBX 18 3 0 0
BITMAP
ff80
ff80
ff80
ENDCHAR
STARTCHAR :
ENCODING 58
SWIDTH 9000 0
DWIDTH 18 0
BBX 18 3 0 0
BITMAP
ff8e
ff8e
ff8e
ENDCHAR
STARTCHAR <
ENCODING 60
SWIDTH 9000 0
DWIDTH 18 0
BBX 18 3 0 0
BITMAP
fff0
fff0
fff0
ENDCHAR
STARTCHAR >
ENCODING 62
SWIDTH 9000 0
DWIDTH 18 0
BBX 18 3 0 0
BITMAP
fffe
fffe
fffe
ENDCHAR
STARTCHAR @
ENCODING 64
SWIDTH 1000 0
DWIDTH 2 0
BBX 2 3 0 0
BITMAP
00
00
00
ENDCHAR
STARTCHAR B
ENCODING 66
SWIDTH 4000 0
DWIDTH 8 0
BBX 8 3 0 0
BITMAP
00
00
00
ENDCHAR
STARTCHAR D
ENCODING 68
SWIDTH 7000 0
DWIDTH 14 0
BBX 14 3 0 0
BITMAP
00
00
00
ENDCHAR
STARTCHAR F
ENCODING 70
SWIDTH 10000 0
DWIDTH 20 0
BBX 20 3 0 0
BITMAP
00
00
00
ENDCHAR
STARTCHAR H
ENCODING 72
SWIDTH 13000 0
DWIDTH 26 0
BBX 26 3 0 0
BITMAP
00
00
00
ENDCHAR
STARTCHAR J
ENCODING 74
SWIDTH 16000 0
DWIDTH 32 0
BBX 32 3 0 0
BITMAP
00
00
00
ENDCHAR
STARTCHAR L
ENCODING 76
SWIDTH 19000 0
DWIDTH 38 0
BBX 38 3 0 0
BITMAP
00
00
00
ENDCHAR
STARTCHAR N
ENCODING 78
SWIDTH 22000 0
DWIDTH 44 0
BBX 44 3 0 0
BITMAP
00
00
00
ENDCHAR
STARTCHAR P
ENCODING 80
SWIDTH 25000 0
DWIDTH 50 0
BBX 50 3 0 0
BITMAP
00
00
00
ENDCHAR
STARTCHAR R
ENCODING 82
SWIDTH 28000 0
DWIDTH 56 0
BBX 56 3 0 0
BITMAP
00
00
00
ENDCHAR
STARTCHAR T
ENCODING 84
SWIDTH 31000 0
DWIDTH 62 0
BBX 62 3 0 0
BITMAP
00
00
00
ENDCHAR
STARTCHAR V
ENCODING 86
SWIDTH 34000 0
DWIDTH 68 0
BBX 68 3 0 0
BITMAP
00
00
00
ENDCHAR
STARTCHAR X
ENCODING 88
SWIDTH 37000 0
DWIDTH 74 0
BBX 74 3 0 0
BITMAP
00
00
00
ENDCHAR
STARTCHAR Z
ENCODING 90
SWIDTH 40000 0
DWIDTH 80 0
BBX 80 3 0 0
BITMAP
00
00
00
ENDCHAR
STARTCHAR [
ENCODING 91
SWIDTH 42000 0
DWIDTH 84 0
BBX 84 3 0 0
BITMAP
00
00
00
ENDCHAR
STARTCHAR \
ENCODING 92
SWIDTH 43500 0
DWIDTH 87 0
BBX 87 3 0 0
BITMAP
00
00
00
ENDCHAR
STARTCHAR ]
ENCODING 93
SWIDTH 45000 0
DWIDTH 90 0
BBX 90 3 0 0
BITMAP
00
00
00
ENDCHAR
STARTCHAR ^
ENCODING 94
SWIDTH 46500 0
DWIDTH 93 0
BBX 93 3 0 0
BITMAP
00
00
00
ENDCHAR
STARTCHAR _
ENCODING 95
SWIDTH 48000 0
DWIDTH 96 0
BBX 96 3 0 0
BITMAP
00
00
00
ENDCHAR
STARTCHAR `
ENCODING 96
SWIDTH 1500 0
DWIDTH 3 0
BBX 3 3 0 0
BITMAP
e0
e0
e0
ENDCHAR
STARTCHAR a
ENCODING 97
SWIDTH 3000 0
DWIDTH 6 0
BBX 6 3 0 0
BITMAP
fc
fc
fc
ENDCHAR
STARTCHAR b
ENCODING 98
SWIDTH 4500 0
DWIDTH 9 0
BBX 9 3 0 0
BITMAP
ff80
ff80
ff80
ENDCHAR
STARTCHAR c
ENCODING 99
SWIDTH 6000 0
DWIDTH 12 0
BBX 12 3 0 0
BITMAP
fff0
fff0
fff0
ENDCHAR
STARTCHAR d
ENCODING 100
SWIDTH 7500 0
DWIDTH 15 0
BBX 15 3 0 0
BITMAP
fffe
fffe
fffe
ENDCHAR
STARTCHAR e
ENCODING 101
SWIDTH 9000 0
DWIDTH 18 0
BBX 18 3 0 0
BITMAP
ffffc0
ffffc0
ffffc0
ENDCHAR
STARTCHAR f
ENCODING 102
SWIDTH 10500 0
DWIDTH 21 0
BBX 21 3 0 0
BITMAP
fffff8
fffff8
fffff8
ENDCHAR
STARTCHAR g
ENCODING 103
SWIDTH 12000 0
DWIDTH 24 0
BBX 24 3 0 0
BITMAP
ffffff
ffffff
ffffff
ENDCHAR
STARTCHAR h
ENCODING 104
SWIDTH 13500 0
DWIDTH 27 0
BBX 27 3 0 0
BITMAP
ffffffe0
ffffffe0
ffffffe0
ENDCHAR
STARTCHAR i
ENCODING 105
SWIDTH 15000 0
DWIDTH 30 0
BBX 30 3 0 0
BITMAP
fffffffc
fffffffc
fffffffc
ENDCHAR
STARTCHAR j
ENCODING 106
SWIDTH 16500 0
DWIDTH 33 0
BBX 33 3 0 0
BITMAP
ffffffff80
ffffffff80
ffffffff80
ENDCHAR
STARTCHAR k
ENCODING 107
SWIDTH 18000 0
DWIDTH 36 0
BBX 36 3 0 0
BITMAP
fffffffff0
fffffffff0
fffffffff0
ENDCHAR
STARTCHAR l
ENCODING 108
SWIDTH 19500 0
DWIDTH 39 0
BBX 39 3 0 0
BITMAP
fffffffffe
fffffffffe
fffffffffe
ENDCHAR
STARTCHAR m
ENCODING 109
SWIDTH 21000 0
DWIDTH 42 0
BBX 42 3 0 0
BITMAP
ffffffffffc0
ffffffffffc0
ffffffffffc0
ENDCHAR
STARTCHAR n
ENCODING 110
SWIDTH 22500 0
DWIDTH 45 0
BBX 45 3 0 0
BITMAP
fffffffffff8
fffffffffff8
fffffffffff8
ENDCHAR
STARTCHAR o
ENCODING 111
SWIDTH 24000 0
DWIDTH 48 0
BBX 48 3 0 0
BITMAP
ffffffffffff
ffffffffffff
ffffffffffff
ENDCHAR
STARTCHAR p
ENCODING 112
SWIDTH 25500 0
DWIDTH 51 0
BBX 51 3 0 0
BITMAP
ffffffffffffe0
ffffffffffffe0
ffffffffffffe0
ENDCHAR
STARTCHAR q
ENCODING 113
SWIDTH 27000 0
DWIDTH 54 0
BBX 54 3 0 0
BITMAP
fffffffffffffc
fffffffffffffc
fffffffffffffc
ENDCHAR
STARTCHAR r
ENCODING 114
SWIDTH 28500 0
DWIDTH 57 0
BBX 57 3 0 0
BITMAP
ffffffffffffff80
ffffffffffffff80
ffffffffffffff80
ENDCHAR
STARTCHAR s
ENCODING 115
SWIDTH 30000 0
DWIDTH 60 0
BBX 60 3 0 0
BITMAP
fffffffffffffff0
fffffffffffffff0
fffffffffffffff0
ENDCHAR
STARTCHAR t
ENCODING 116
SWIDTH 31500 0
DWIDTH 63 0
BBX 63 3 0 0
BITMAP
fffffffffffffffe
fffffffffffffffe
fffffffffffffffe
ENDCHAR
STARTCHAR u
ENCODING 117
SWIDTH 33000 0
DWIDTH 66 0
BBX 66 3 0 0
BITMAP
ffffffffffffffffc0
ffffffffffffffffc0
ffffffffffffffffc0
ENDCHAR
STARTCHAR v
ENCODING 118
SWIDTH 34500 0
DWIDTH 69 0
BBX 69 3 0 0
BITMAP
fffffffffffffffff8
fffffffffffffffff8
fffffffffffffffff8
ENDCHAR
STARTCHAR w
ENCODING 119
SWIDTH 36000 0
DWIDTH 72 0
BBX 72 3 0 0
BITMAP
ffffffffffffffffff
ffffffffffffffffff
ffffffffffffffffff
ENDCHAR
STARTCHAR x
ENCODING 120
SWIDTH 37500 0
DWIDTH 75 0
BBX 75 3 0 0
BITMAP
ffffffffffffffffffe0
ffffffffffffffffffe0
ffffffffffffffffffe0
ENDCHAR
STARTCHAR y
ENCODING 121
SWIDTH 39000 0
DWIDTH 78 0
BBX 78 3 0 0
BITMAP
fffffffffffffffffffc
fffffffffffffffffffc
fffffffffffffffffffc
ENDCHAR
STARTCHAR z
ENCODING 122
SWIDTH 40500 0
DWIDTH 81 0
BBX 81 3 0 0
BITMAP
ffffffffffffffffffff80
ffffffffffffffffffff80
ffffffffffffffffffff80
ENDCHAR
STARTCHAR {
ENCODING 123
SWIDTH 42000 0
DWIDTH 84 0
BBX 84 3 0 0
BITMAP
fffffffffffffffffffff0
fffffffffffffffffffff0
fffffffffffffffffffff0
ENDCHAR
STARTCHAR |
ENCODING 124
SWIDTH 43500 0
DWIDTH 87 0
BBX 87 3 0 0
BITMAP
fffffffffffffffffffffe
fffffffffffffffffffffe
fffffffffffffffffffffe
ENDCHAR
STARTCHAR }
ENCODING 125
SWIDTH 45000 0
DWIDTH 90 0
BBX 90 3 0 0
BITMAP
ffffffffffffffffffffffc0
ffffffffffffffffffffffc0
ffffffffffffffffffffffc0
ENDCHAR
STARTCHAR ~
ENCODING 126
SWIDTH 46500 0
DWIDTH 93 0
BBX 93 3 0 0
BITMAP
fffffffffffffffffffffff8
fffffffffffffffffffffff8
fffffffffffffffffffffff8
ENDCHAR
STARTCHAR C177
ENCODING 127
SWIDTH 48000 0
DWIDTH 96 0
BBX 96 3 0 0
BITMAP
ffffffffffffffffffffffff
ffffffffffffffffffffffff
ffffffffffffffffffffffff
ENDCHAR
ENDFONT
